<svg width="54" height="54" viewBox="0 0 54 54" fill="none" xmlns="http://www.w3.org/2000/svg">
<circle cx="27" cy="27" r="26" stroke="black" stroke-width="2"/>
<path fill-rule="evenodd" clip-rule="evenodd" d="M12.395 23.8616C12.8579 23.4301 13.5628 23.4205 14.0362 23.816L14.1494 23.9233L23.4597 33.9117C23.9271 34.4132 23.8995 35.1987 23.398 35.6661C22.9351 36.0976 22.2302 36.1073 21.7568 35.7118L21.6436 35.6045L12.3333 25.6161C11.8658 25.1146 11.8935 24.3291 12.395 23.8616Z" fill="black"/>
<path fill-rule="evenodd" clip-rule="evenodd" d="M31.4355 18.5751C31.8036 17.9967 32.5708 17.8262 33.1493 18.1942C33.6863 18.536 33.8717 19.222 33.6008 19.7814L33.5301 19.908L29.1853 26.7355C28.8172 27.3139 28.05 27.4844 27.4715 27.1163C26.9345 26.7745 26.7491 26.0886 27.02 25.5292L27.0907 25.4026L31.4355 18.5751Z" fill="black"/>
<path fill-rule="evenodd" clip-rule="evenodd" d="M37.65 19.8046C38.0245 19.2303 38.7937 19.0684 39.3679 19.4429C39.9012 19.7907 40.0789 20.4787 39.8017 21.035L39.7296 21.1608L30.4193 35.4366C29.9981 36.0825 29.1077 36.1838 28.5517 35.6838L28.4453 35.5758L19.7573 25.6449C19.3059 25.1289 19.3582 24.3446 19.8742 23.8932C20.3505 23.4765 21.0554 23.4891 21.5161 23.8993L21.6259 24.0101L29.2343 32.7077L37.65 19.8046Z" fill="black"/>
</svg>
