<svg width="42" height="42" viewBox="0 0 42 42" fill="none" xmlns="http://www.w3.org/2000/svg">
<circle cx="21" cy="21" r="21" fill="#388E37"/>
<path fill-rule="evenodd" clip-rule="evenodd" d="M19.2256 10.2603C18.998 10.4033 18.7107 10.6789 18.5871 10.8728C18.421 11.1339 18.1934 11.2516 17.7118 11.326C16.8651 11.4567 16.1278 11.8514 15.7734 12.3638C15.6107 12.5989 15.1058 12.9588 14.59 13.2072C13.4631 13.75 11.9308 15.2913 11.2359 16.5811C10.3401 18.2435 9.6397 21.1176 9.6397 23.1309C9.6397 23.7951 9.571 24.1291 9.37658 24.4101C8.98665 24.9739 8.91223 25.4573 9.09481 26.241C9.30216 27.1302 10.1106 28.4223 11.1845 29.581C12.5902 31.0974 11.9064 30.9987 21.0002 30.9987C30.094 30.9987 29.4102 31.0974 30.8159 29.581C31.8898 28.4223 32.6982 27.1302 32.9055 26.241C33.0854 25.4687 33.0141 24.9774 32.6427 24.4317C32.464 24.1693 32.3783 23.6972 32.3231 22.6727C32.0766 18.0973 30.3649 14.7829 27.44 13.2166C26.8555 12.9036 26.3143 12.5264 26.2373 12.3782C26.028 11.9756 25.032 11.4347 24.2976 11.3246C23.797 11.2495 23.5853 11.1349 23.3685 10.8213C22.9074 10.1547 22.454 9.99944 20.973 10C19.9143 10.0004 19.5543 10.0541 19.2256 10.2603ZM22.4015 11.2878C22.5221 11.4118 22.5648 12.7037 22.5648 16.231C22.5648 21.1869 22.5821 21.3424 23.1314 21.3424C23.603 21.3424 23.6532 20.8851 23.6532 16.5904C23.6532 11.8817 23.5705 12.2218 24.6408 12.5278C25.4533 12.7601 25.6154 13.1539 25.694 15.0889C25.7506 16.4814 25.8019 16.7877 26.0001 16.9158C26.1732 17.0279 26.3033 17.0279 26.4763 16.9158C26.6679 16.792 26.7278 16.495 26.7824 15.3978L26.8505 14.0337L27.685 14.608C29.2705 15.6989 30.2684 17.3667 30.9187 20.012C31.1755 21.0563 31.4553 24.0124 31.3109 24.1541C31.1548 24.3072 28.3102 24.9329 26.5784 25.195C21.764 25.9238 15.4549 25.5724 11.2987 24.344L10.5768 24.1306L10.6598 23.1217C11.0247 18.6846 12.2453 15.9485 14.5242 14.4586L15.1499 14.0496L15.2179 15.4058C15.2726 16.4953 15.3327 16.7922 15.524 16.9158C15.6971 17.0279 15.8271 17.0279 16.0002 16.9158C16.1984 16.7877 16.2497 16.4814 16.3063 15.0889C16.385 13.1539 16.547 12.7601 17.3595 12.5278C18.4298 12.2218 18.3471 11.8817 18.3471 16.5904C18.3471 20.8851 18.3973 21.3424 18.8689 21.3424C19.4183 21.3424 19.4356 21.1869 19.4356 16.231C19.4356 12.7037 19.4783 11.4118 19.5988 11.2878C19.8203 11.0598 22.18 11.0598 22.4015 11.2878ZM11.6321 25.5405C16.6016 26.8085 22.4757 27.0106 27.7152 26.0936C29.0554 25.8591 30.954 25.4258 31.7144 25.181C31.9068 25.1191 31.9525 25.1899 31.9525 25.5495C31.9525 26.2571 31.1532 27.6199 30.0472 28.7975L29.0262 29.8846H21.0002H12.9741L11.9532 28.7975C10.8472 27.6199 10.0479 26.2571 10.0479 25.5495C10.0479 25.1899 10.0936 25.1191 10.286 25.181C10.4168 25.2232 11.0227 25.3849 11.6321 25.5405Z" fill="#F9F9F9"/>
</svg>
