<svg width="42" height="42" viewBox="0 0 42 42" fill="none" xmlns="http://www.w3.org/2000/svg">
<path d="M42 21C42 32.598 32.598 42 21 42C9.40202 42 0 32.598 0 21C0 9.40202 9.40202 0 21 0C32.598 0 42 9.40202 42 21Z" fill="#388E37"/>
<path d="M13.6606 14.1411L13.6403 18.2889L11.8202 18.3092L10 18.3227L10.0406 23.2081C10.0677 25.8944 10.088 28.919 10.088 29.9407V31.788H32.8909L32.8571 12.0638H24.602L24.5817 17.2536L24.5682 22.4503H21.9969V10H13.6742L13.6606 14.1411ZM20.9143 22.4503H18.343V18.3227H14.6891V11.015H20.9143V22.4503ZM31.8421 30.7392L30.5429 30.7595L29.237 30.773V28.6754H28.222V30.773L26.9229 30.7595L25.617 30.7392L25.5967 22.0104C25.5899 17.2063 25.5967 13.2411 25.617 13.1938C25.6373 13.1329 26.3342 13.1126 28.7634 13.1126H31.8759L31.8421 30.7392ZM17.3145 25.0756L17.3281 30.773H14.6891V28.6754H13.6742V30.773H12.4224C11.4751 30.773 11.1571 30.7527 11.1368 30.6918C11.1232 30.6444 11.0962 28.0664 11.0894 24.9674L11.0691 19.3377L14.1817 19.3512L17.2942 19.3715L17.3145 25.0756ZM24.5682 30.773H22.0037L21.9631 28.7092H20.9481L20.9075 30.773H18.343V23.4652H24.5682V30.773Z" fill="white"/>
<path d="M16.2935 12.0705C16.2664 12.0976 16.2461 12.3479 16.2461 12.6186V13.1193L17.2949 13.0787V12.0638L16.8212 12.0435C16.5573 12.0367 16.3205 12.0435 16.2935 12.0705Z" fill="white"/>
<path d="M18.3901 12.0773C18.3631 12.0976 18.3428 12.3412 18.3428 12.6187V13.1126H19.3577V12.03H18.8976C18.6405 12.03 18.4104 12.0503 18.3901 12.0773Z" fill="white"/>
<path d="M16.2461 15.1425H17.3355L17.2949 14.1614L16.2461 14.1208V15.1425Z" fill="white"/>
<path d="M18.3428 15.1425H19.3577V14.1276H18.3428V15.1425Z" fill="white"/>
<path d="M27.2071 15.1425H28.2221V14.1276H27.2071V15.1425Z" fill="white"/>
<path d="M29.2711 15.1763L30.2522 15.2169V14.1275H29.2305L29.2711 15.1763Z" fill="white"/>
<path d="M27.2071 17.2401H28.2221V16.2251H27.2071V17.2401Z" fill="white"/>
<path d="M29.2363 17.2401H30.2513V16.2251H29.2363V17.2401Z" fill="white"/>
<path d="M27.2071 19.3377H28.2221V18.3228H27.2071V19.3377Z" fill="white"/>
<path d="M29.2363 19.3377H30.2513V18.3227H29.2363V19.3377Z" fill="white"/>
<path d="M27.2071 21.4353H28.2221V20.3527H27.2071V21.4353Z" fill="white"/>
<path d="M29.264 20.4474C29.2437 20.4947 29.2369 20.7316 29.2504 20.9684L29.2707 21.4014L30.2519 21.442V20.3526H29.7782C29.4399 20.3526 29.291 20.3797 29.264 20.4474Z" fill="white"/>
<path d="M27.2071 23.4652H28.2221V22.4503H27.2071V23.4652Z" fill="white"/>
<path d="M29.2363 23.4653H30.2513V22.4503H29.2363V23.4653Z" fill="white"/>
<path d="M27.2071 25.5628H28.2221V24.5479H27.2071V25.5628Z" fill="white"/>
<path d="M29.2363 25.5629H30.2513V24.5479H29.2363V25.5629Z" fill="white"/>
<path d="M27.2071 27.6604H28.2221V26.5778H27.2071V27.6604Z" fill="white"/>
<path d="M29.2837 26.6252C29.2566 26.6455 29.2363 26.8891 29.2363 27.1665V27.6605H30.2513V26.5778H29.7912C29.5341 26.5778 29.304 26.5981 29.2837 26.6252Z" fill="white"/>
<path d="M12.6182 20.4473C12.5979 20.4947 12.5912 20.7315 12.6047 20.9684L12.625 21.4014L13.6738 21.442V20.3526H13.1663C12.8009 20.3526 12.6453 20.3797 12.6182 20.4473Z" fill="white"/>
<path d="M14.7159 20.4474C14.6956 20.4947 14.6888 20.7316 14.7024 20.9684L14.7227 21.4014L15.7038 21.442V20.3526H15.2302C14.8918 20.3526 14.743 20.3797 14.7159 20.4474Z" fill="white"/>
<path d="M12.5918 23.4653H13.6744V22.4503H12.5918V23.4653Z" fill="white"/>
<path d="M14.6885 23.4652H15.7035V22.4503H14.6885V23.4652Z" fill="white"/>
<path d="M12.5918 25.5629H13.6744V24.5479H12.5918V25.5629Z" fill="white"/>
<path d="M14.6885 25.5628H15.7035V24.5479H14.6885V25.5628Z" fill="white"/>
<path d="M19.8994 25.5629H20.9144V24.5479H19.8994V25.5629Z" fill="white"/>
<path d="M21.9961 25.5629H23.0111V24.5479H21.9961V25.5629Z" fill="white"/>
<path d="M19.8994 27.6605H20.9144V26.5778H19.8994V27.6605Z" fill="white"/>
<path d="M21.9961 27.6605H23.0111V26.5778H21.9961V27.6605Z" fill="white"/>
</svg>
