<svg width="42" height="42" viewBox="0 0 42 42" fill="none" xmlns="http://www.w3.org/2000/svg">
<path d="M42 21C42 32.598 32.598 42 21 42C9.40202 42 0 32.598 0 21C0 9.40202 9.40202 0 21 0C32.598 0 42 9.40202 42 21Z" fill="#388E37"/>
<path fill-rule="evenodd" clip-rule="evenodd" d="M26.5159 8.10608C26.4513 8.16627 26.0698 8.84836 25.668 9.62189C25.2662 10.3954 24.4997 11.8658 23.9645 12.8894C23.3379 14.0881 22.9916 14.8142 22.9916 14.9296C22.9916 15.201 23.1513 15.3473 23.6501 15.5327C23.8995 15.6254 24.1037 15.7304 24.1037 15.7659C24.1037 15.8192 23.4953 16.976 23.427 17.0527C23.4154 17.0656 23.2725 16.9482 23.1094 16.7916C22.9464 16.6351 22.7346 16.4886 22.6389 16.4661C22.4328 16.4178 22.4292 16.3829 22.5819 15.9189C22.7227 15.4911 22.7279 15.2673 22.6083 14.7769C22.4163 13.9897 21.9901 13.3812 21.3614 12.9965L21.0051 12.7785L21.0034 12.4534C20.9966 11.1897 20.1935 9.83754 19.1238 9.28898C18.5742 9.00713 18.2865 8.93756 17.6655 8.93656C16.7958 8.93518 16.1424 9.20897 15.5088 9.84023C15.302 10.0463 15.0466 10.3514 14.9413 10.5184C14.7744 10.7831 14.6999 10.8407 14.3606 10.9673C13.3603 11.3406 12.7032 12.3085 12.6542 13.4808C12.6389 13.848 12.607 13.9791 12.4937 14.1402C12.1058 14.6919 11.8115 15.626 11.8136 16.2987C11.8141 16.4597 11.85 16.7524 11.8933 16.949C11.9595 17.2494 11.9593 17.3589 11.8924 17.6346C11.7969 18.0277 11.7925 18.2618 11.8749 18.5786C11.9345 18.8079 11.9281 18.8254 11.671 19.1308C10.9354 20.0045 10.7934 21.1834 11.3005 22.2042C11.507 22.6198 12.0346 23.1706 12.414 23.3668C12.6296 23.4782 12.6695 23.5257 12.6481 23.6452C12.6056 23.8827 12.7385 24.4996 12.9226 24.9199C13.2598 25.6895 14.0237 26.2963 14.8335 26.438C15.2694 26.5142 16.0583 26.5164 16.3009 26.4422C16.4375 26.4003 16.4941 26.4063 16.5152 26.4651C16.5309 26.5091 16.5768 26.9249 16.617 27.3892C16.705 28.4042 16.6428 28.9541 16.3733 29.5455C16.2205 29.881 16.1307 29.985 15.7312 30.2906C15.1771 30.7143 14.9991 31.0224 15.0469 31.4752C15.0872 31.8564 15.2204 31.9997 15.535 31.9997C15.828 31.9997 15.9682 31.8451 15.9682 31.5223C15.9682 31.3561 16.0153 31.2858 16.2502 31.1017C17.2475 30.3198 17.5643 29.528 17.5582 27.8333L17.5548 26.886L17.7686 26.949C17.8861 26.9837 18.0799 26.998 18.1992 26.981C18.4442 26.9459 18.4825 27.0114 18.4843 27.4679C18.4859 27.8716 18.654 28.7852 18.8292 29.3418C19.0867 30.1604 19.4099 30.6712 20.017 31.2192C20.1884 31.3739 20.3702 31.5776 20.421 31.6719C20.5958 31.996 21.0273 32.0192 21.2142 31.7146C21.2982 31.5778 21.3013 31.521 21.2375 31.2936C21.1808 31.0914 21.0427 30.9088 20.6384 30.5017C20.3211 30.1823 20.0565 29.8535 19.9702 29.6718C19.8059 29.3253 19.5636 28.377 19.511 27.8742C19.4912 27.6851 19.4606 27.4251 19.4431 27.2964L19.4113 27.0625L19.6708 27.1004C19.8136 27.1214 20.0683 27.1069 20.2367 27.0683C20.5287 27.0014 20.5624 27.008 20.9625 27.2096C22.0051 27.7351 23.5164 28.1162 24.9859 28.2243C25.4879 28.2613 25.5809 28.2853 25.6345 28.3923C25.6736 28.4704 25.6879 28.824 25.6727 29.3364C25.6366 30.5514 25.4903 30.7495 24.6294 30.7495C24.0489 30.7495 23.8702 30.8659 23.7269 31.3373C23.6768 31.5023 23.798 31.8628 23.9289 31.9377C24.1224 32.0482 24.368 32.0086 24.5134 31.8434C24.6242 31.7174 24.7072 31.6871 24.9411 31.6871C25.422 31.6871 25.6817 31.5693 26.0381 31.1895C26.4999 30.6973 26.5911 30.3695 26.5911 29.2024V28.3117H27.6577L27.6898 29.3587C27.7287 30.6292 27.8109 30.9747 28.1634 31.3513C28.4189 31.6241 28.7116 31.7487 29.0986 31.7493C29.2345 31.7495 29.3824 31.7991 29.4723 31.8747C29.6628 32.0347 29.8423 32.0332 30.0364 31.8701C30.2163 31.719 30.2441 31.4214 30.099 31.2001C29.9544 30.9797 29.5536 30.794 29.1371 30.7545L28.7567 30.7183L28.6882 30.437C28.6506 30.2823 28.6177 29.7288 28.615 29.2069L28.6104 28.2582L28.9469 28.2199C29.5482 28.1517 30.443 27.9934 30.9398 27.8674C31.9453 27.6124 32.9016 27.1664 32.9623 26.9241C32.9821 26.845 32.9988 26.483 32.9992 26.1198L33 25.4593L32.5963 24.8071C31.8197 23.5525 30.9515 22.1201 30.9515 22.0933C30.9515 22.0784 31.1264 21.9737 31.3402 21.8605C31.9069 21.5604 32.2046 21.2605 32.2018 20.9926C32.2001 20.83 31.8762 20.1879 30.836 18.2846C29.5657 15.9605 29.4797 15.784 29.5793 15.7061C29.6381 15.6602 29.7092 15.6226 29.7374 15.6226C29.7655 15.6226 29.9168 15.5637 30.0737 15.4916L30.359 15.3605L30.2602 15.1377C30.1855 14.9694 30.1791 14.9085 30.2338 14.8888C30.2736 14.8744 30.3584 14.8157 30.4223 14.7582C30.5361 14.656 30.5026 14.5849 28.846 11.405C27.9152 9.61821 27.1075 8.12033 27.0513 8.07645C26.9068 7.96356 26.6539 7.97756 26.5159 8.10608ZM26.1227 10.7627C24.1538 14.5174 24.0932 14.6395 24.1722 14.694C24.2803 14.7687 24.9252 14.9726 25.4498 15.0981C26.0612 15.2442 27.5333 15.2433 28.1714 15.0965C28.79 14.9542 29.4217 14.7495 29.4631 14.6779C29.4993 14.6155 26.8642 9.55938 26.7956 9.55938C26.7725 9.55938 26.4697 10.1008 26.1227 10.7627ZM17.1095 9.95856C16.4549 10.1286 15.977 10.5289 15.5714 11.2471C15.345 11.648 15.3368 11.6547 14.9674 11.7524C14.4634 11.8857 14.2692 12.0028 13.9893 12.3424C13.6823 12.7149 13.5685 13.0833 13.5685 13.7052C13.5685 14.1829 13.56 14.2144 13.3617 14.4729C13.248 14.6211 13.0702 14.9334 12.9667 15.1669C12.7908 15.5634 12.779 15.6325 12.7871 16.2165C12.7997 17.1328 12.8006 17.6297 12.7906 18.1386C12.7856 18.3879 12.804 18.7115 12.8314 18.8577C12.881 19.1228 12.8801 19.1249 12.5501 19.4635C12.3467 19.6722 12.1606 19.9397 12.0674 20.1571C11.9334 20.4697 11.9187 20.5705 11.9417 21.0203C11.9697 21.5699 12.0496 21.7927 12.3499 22.1579C12.5318 22.3792 13.0158 22.686 13.1829 22.686C13.2305 22.686 13.3418 22.7525 13.4303 22.8338C13.5843 22.9753 13.5906 23.0039 13.577 23.4959C13.5573 24.2001 13.6748 24.5579 14.0608 24.9702C14.4653 25.4021 14.7469 25.4989 15.6001 25.4989H16.2648L16.4696 25.2801C16.7958 24.9317 17.1745 25.0149 17.3138 25.4657C17.3506 25.5849 17.4637 25.7569 17.5651 25.848C17.7596 26.0228 17.8719 26.0274 18.7614 25.8973C18.9449 25.8704 19.0738 25.8949 19.2626 25.9925C19.5323 26.1319 19.9962 26.1678 20.1791 26.0632C20.2375 26.0299 20.5354 25.5868 20.841 25.0787C21.1467 24.5706 21.6894 23.6768 22.047 23.0923L22.6972 22.0297L22.5371 21.9534C22.4491 21.9115 22.2481 21.815 22.0905 21.7391C21.933 21.6632 21.699 21.4944 21.5707 21.3641C21.3758 21.166 21.3429 21.0979 21.3707 20.9497C21.389 20.8521 21.7217 20.1879 22.11 19.4737C22.4983 18.7595 22.816 18.1339 22.816 18.0834C22.816 17.7704 22.4537 17.4002 21.9674 17.2165C21.6484 17.0959 21.4113 16.8702 21.4113 16.6869C21.4113 16.6229 21.4828 16.4205 21.5702 16.2372C21.6878 15.9905 21.7351 15.7853 21.7523 15.4475C21.7734 15.0349 21.758 14.9527 21.591 14.5906C21.3697 14.1104 21.0516 13.8012 20.634 13.6601C20.466 13.6033 20.2996 13.5364 20.2642 13.5115C20.1154 13.4067 20.0602 13.1769 20.098 12.8197C20.2346 11.5303 19.3374 10.2076 18.1455 9.94124C17.7623 9.85561 17.4883 9.86017 17.1095 9.95856ZM24.3638 17.2947C23.9535 18.0425 23.3564 19.1277 23.0369 19.7064C22.7174 20.2851 22.4694 20.7957 22.4856 20.841C22.5232 20.9454 23.2876 21.2618 23.8988 21.426C25.5355 21.8657 28.2063 21.8558 29.8758 21.4041C30.4513 21.2483 31.0596 20.9711 31.1054 20.8435C31.1265 20.7848 28.6524 16.1468 28.5307 16.0168C28.519 16.0042 28.2784 16.0371 27.9962 16.0896C27.2803 16.223 26.3624 16.2108 25.6897 16.0592C25.387 15.991 25.1327 15.9352 25.1246 15.9352C25.1164 15.9352 24.7741 16.5469 24.3638 17.2947ZM29.6639 22.4134C28.1582 22.7885 26.0365 22.8317 24.4741 22.5189C23.5107 22.3261 23.6629 22.2252 22.8073 23.6236C22.3971 24.294 21.876 25.1519 21.6494 25.5301L21.2373 26.2177L21.3653 26.3212C21.5317 26.4557 22.4173 26.7771 23.0501 26.9329C25.1303 27.4446 28.4122 27.471 30.4833 26.9925C31.2224 26.8218 32.3562 26.3713 32.3562 26.2483C32.3562 26.2099 30.0282 22.3548 29.9947 22.3377C29.9898 22.3352 29.8409 22.3692 29.6639 22.4134Z" fill="#F9F9F9"/>
</svg>
