<svg width="42" height="42" viewBox="0 0 42 42" fill="none" xmlns="http://www.w3.org/2000/svg">
<path d="M42 21C42 32.598 32.598 42 21 42C9.40202 42 0 32.598 0 21C0 9.40202 9.40202 0 21 0C32.598 0 42 9.40202 42 21Z" fill="#388E37"/>
<path fill-rule="evenodd" clip-rule="evenodd" d="M16.9824 9.13198C15.0789 9.45884 13.4218 10.2914 12.0602 11.6049C11.2905 12.3474 10.7942 13.0106 10.3325 13.9136C7.83544 18.7969 10.3723 24.5877 15.7502 26.2806C17.4942 26.8295 19.6 26.8262 21.338 26.2717C22.1631 26.0085 23.1214 25.5527 23.7305 25.1338L24.2183 24.7984L31.5423 31.8556L32.2423 31.1802C32.6274 30.8088 32.9611 30.4361 32.9838 30.3519C33.0067 30.2678 33.0051 30.2185 32.9805 30.2423C32.9557 30.2661 31.3171 28.7245 29.339 26.8165L25.7424 23.3474L26.127 22.7984C28.6416 19.2094 28.1 14.4242 24.8415 11.44C22.7351 9.51082 19.7983 8.64837 16.9824 9.13198ZM18.1415 10.0608C16.4212 10.2082 15.0805 10.6572 13.86 11.4945C12.4287 12.4763 11.346 13.9122 10.8352 15.5062C10.559 16.3684 10.4709 16.9461 10.4735 17.8782C10.4796 20.0749 11.3352 21.9914 12.9848 23.504C14.1169 24.5421 15.3764 25.1708 17.0007 25.5086C17.8177 25.6785 19.3934 25.6634 20.2286 25.4777C21.8233 25.1231 23.0761 24.4651 24.2091 23.3868C27.4684 20.2852 27.4057 15.2296 24.0704 12.1854C22.8892 11.1074 21.4957 10.4292 19.9681 10.1891C19.3005 10.0842 18.5132 10.0289 18.1415 10.0608ZM15.5422 13.1975C15.2064 13.262 14.9919 13.3782 14.683 13.663C14.2873 14.0279 14.1883 14.3971 14.2179 15.3972C14.2412 16.1842 14.254 16.2463 14.4552 16.5602C15.1585 17.6573 16.8277 17.532 17.3424 16.3435C17.4566 16.08 17.4758 14.5861 17.3698 14.2186C17.1755 13.545 16.2948 13.0528 15.5422 13.1975ZM21.057 13.1983C20.9797 13.2288 20.8664 13.3108 20.8053 13.3804C20.6237 13.5872 15.3162 21.8167 15.2813 21.9457C15.2302 22.1338 15.4541 22.4797 15.6588 22.5292C16.0848 22.6323 16.0792 22.6395 18.6818 18.6236C21.689 13.9835 21.7946 13.815 21.7946 13.6564C21.7946 13.5097 21.4273 13.1322 21.2907 13.1385C21.2394 13.1409 21.1342 13.1678 21.057 13.1983ZM15.6125 14.2688C15.3846 14.3542 15.336 14.5233 15.3337 15.237C15.331 16.0992 15.4044 16.2517 15.8221 16.2517C16.0349 16.2517 16.127 16.2113 16.2455 16.0659C16.3827 15.8976 16.3949 15.8137 16.3736 15.1787C16.3522 14.5375 16.3359 14.4663 16.1843 14.348C16.0204 14.2201 15.8173 14.1919 15.6125 14.2688ZM20.7121 18.4592C20.2816 18.6114 19.9674 18.8827 19.7856 19.2595C19.6373 19.5667 19.6181 19.7038 19.6175 20.4583C19.6169 21.254 19.6295 21.3344 19.81 21.6777C20.0317 22.0993 20.3922 22.3711 20.8989 22.4985C21.5617 22.6652 22.3077 22.3175 22.6522 21.6814C22.8369 21.3401 22.8483 21.2691 22.8477 20.4627C22.8471 19.7035 22.828 19.5669 22.6796 19.2595C22.3353 18.5463 21.4661 18.1927 20.7121 18.4592ZM20.8716 19.5664C20.7152 19.6886 20.7057 19.7392 20.7057 20.4533C20.7057 21.1676 20.7152 21.2181 20.8716 21.3404C20.9628 21.4117 21.1253 21.47 21.2326 21.47C21.3399 21.47 21.5024 21.4117 21.5936 21.3404C21.75 21.2181 21.7595 21.1676 21.7595 20.4533C21.7595 19.7392 21.75 19.6886 21.5936 19.5664C21.5024 19.4952 21.3399 19.4369 21.2326 19.4369C21.1253 19.4369 20.9628 19.4952 20.8716 19.5664ZM6.04158 33.9877C6.12897 34.0039 6.25542 34.0033 6.32258 33.9863C6.38974 33.9694 6.31823 33.9561 6.16367 33.9569C6.00912 33.9576 5.95418 33.9715 6.04158 33.9877ZM6.8135 33.9897C7.01638 34.0034 7.34832 34.0034 7.55114 33.9897C7.75402 33.976 7.58802 33.9649 7.18232 33.9649C6.77662 33.9649 6.61068 33.976 6.8135 33.9897Z" fill="#F9F9F9"/>
</svg>
