<svg width="42" height="42" viewBox="0 0 42 42" fill="none" xmlns="http://www.w3.org/2000/svg">
<path d="M42 21C42 32.598 32.598 42 21 42C9.40202 42 0 32.598 0 21C0 9.40202 9.40202 0 21 0C32.598 0 42 9.40202 42 21Z" fill="#388E37"/>
<path fill-rule="evenodd" clip-rule="evenodd" d="M18.5763 12.6993L19.5706 13.6757V10.8709L26.2203 10.9375L26.2878 15.75H31.0056V27.25H24.2787L24.3559 28.1875L32 28.2536V15.0602L26.9639 10H18.5763V12.6993ZM28.8305 13.25L30.3182 14.75H27.1525V13.25C27.1525 12.425 27.1954 11.75 27.2478 11.75C27.3001 11.75 28.0123 12.425 28.8305 13.25ZM10 32H23.4237V18.9352L18.2634 13.75H10V32ZM17.7062 19.625H22.4294V31.125H10.9944V14.75H17.7062V19.625ZM20.1921 17.0625L21.742 18.625H18.5763V17.0625C18.5763 16.2031 18.5911 15.5 18.6092 15.5C18.6274 15.5 19.3397 16.2031 20.1921 17.0625ZM24.4685 18.625H29.1412V17.625H23.4976L24.4685 18.625ZM24.2938 21.5H27.1525V20.5H24.2938V21.5ZM12.9209 22.4375H20.5028L20.58 21.5H12.8437L12.9209 22.4375ZM24.2938 24.375H29.1412V23.375H24.2938V24.375ZM12.9209 25.3125L18.5763 25.3797V24.375H12.8437L12.9209 25.3125ZM12.9209 28.1875H20.5028L20.58 27.25H12.8437L12.9209 28.1875Z" fill="#F9F9F9"/>
</svg>
