<svg width="33" height="33" viewBox="0 0 33 33" fill="none" xmlns="http://www.w3.org/2000/svg">
<path fill-rule="evenodd" clip-rule="evenodd" d="M9.075 5.5C7.10325 5.5 5.5 7.10325 5.5 9.075C5.5 19.2335 13.7651 27.5 23.925 27.5C25.8954 27.5 27.5 25.8967 27.5 23.925C27.5 23.7724 27.4904 23.6225 27.4711 23.474L21.1186 22.0165C20.9921 22.2585 20.8533 22.5211 20.7268 22.7659C20.0998 23.9621 19.646 24.8311 18.4882 24.365C13.9425 22.77 10.2314 19.0575 8.61575 14.4567C8.12488 13.3774 9.05988 12.8879 10.2451 12.2691C10.4858 12.1426 10.7456 12.0065 10.9835 11.8828L9.526 5.52888C9.37337 5.50962 9.22487 5.5 9.075 5.5ZM23.925 30.25C12.2485 30.25 2.75 20.7515 2.75 9.075C2.75 5.58662 5.58662 2.75 9.075 2.75C9.4325 2.75 9.78588 2.78025 10.1283 2.83937C10.4624 2.893 10.7979 2.97825 11.1251 3.091C11.572 3.24637 11.9089 3.62175 12.0147 4.08375L13.8971 12.2843C14.0016 12.7353 13.871 13.2083 13.5492 13.5437C13.3623 13.739 13.3581 13.7431 11.6531 14.6355C13.0336 17.6248 15.433 20.0159 18.3617 21.3496C19.2555 19.6433 19.261 19.6378 19.4562 19.4508C19.7917 19.129 20.2675 19.0039 20.7157 19.1029L28.9176 20.9853C29.3783 21.0911 29.7536 21.4266 29.9076 21.8735C30.0204 22.198 30.1056 22.5335 30.162 22.8786C30.2198 23.2183 30.25 23.5702 30.25 23.925C30.25 27.4134 27.412 30.25 23.925 30.25Z" fill="#100E0E"/>
<mask id="mask0_262_649" style="mask-type:luminance" maskUnits="userSpaceOnUse" x="2" y="2" width="29" height="29">
<path fill-rule="evenodd" clip-rule="evenodd" d="M9.075 5.5C7.10325 5.5 5.5 7.10325 5.5 9.075C5.5 19.2335 13.7651 27.5 23.925 27.5C25.8954 27.5 27.5 25.8967 27.5 23.925C27.5 23.7724 27.4904 23.6225 27.4711 23.474L21.1186 22.0165C20.9921 22.2585 20.8533 22.5211 20.7268 22.7659C20.0998 23.9621 19.646 24.8311 18.4882 24.365C13.9425 22.77 10.2314 19.0575 8.61575 14.4567C8.12488 13.3774 9.05988 12.8879 10.2451 12.2691C10.4858 12.1426 10.7456 12.0065 10.9835 11.8828L9.526 5.52888C9.37337 5.50962 9.22487 5.5 9.075 5.5ZM23.925 30.25C12.2485 30.25 2.75 20.7515 2.75 9.075C2.75 5.58662 5.58662 2.75 9.075 2.75C9.4325 2.75 9.78588 2.78025 10.1283 2.83937C10.4624 2.893 10.7979 2.97825 11.1251 3.091C11.572 3.24637 11.9089 3.62175 12.0147 4.08375L13.8971 12.2843C14.0016 12.7353 13.871 13.2083 13.5492 13.5437C13.3623 13.739 13.3581 13.7431 11.6531 14.6355C13.0336 17.6248 15.433 20.0159 18.3617 21.3496C19.2555 19.6433 19.261 19.6378 19.4562 19.4508C19.7917 19.129 20.2675 19.0039 20.7157 19.1029L28.9176 20.9853C29.3783 21.0911 29.7536 21.4266 29.9076 21.8735C30.0204 22.198 30.1056 22.5335 30.162 22.8786C30.2198 23.2183 30.25 23.5702 30.25 23.925C30.25 27.4134 27.412 30.25 23.925 30.25Z" fill="white"/>
</mask>
<g mask="url(#mask0_262_649)">
<rect width="34.375" height="34.375" fill="#100E0E"/>
</g>
</svg>
