<svg width="208" height="208" viewBox="0 0 208 208" fill="none" xmlns="http://www.w3.org/2000/svg">
<g filter="url(#filter0_d_271_292)">
<circle cx="103.767" cy="99.7674" r="85.7674" fill="#F9F9F9"/>
</g>
<path fill-rule="evenodd" clip-rule="evenodd" d="M70.2554 56.1728C62.5689 57.548 56.7136 59.6454 56.3727 61.1459C56.2569 61.6556 56.1125 63.5419 56.0522 65.3375L55.9425 68.6024L53.5344 68.8623C50.5174 69.1879 49.0749 70.123 47.9311 72.4937C47.0463 74.3286 47.0355 74.7787 47.1509 105.293C47.2662 135.768 47.2814 136.249 48.1623 137.432C48.6542 138.094 49.5953 139.038 50.2537 139.532C51.4235 140.409 51.9912 140.432 74.6811 140.55C97.9062 140.669 97.9114 140.67 99.2638 141.638C101.151 142.989 104.852 142.989 106.739 141.638C108.092 140.67 108.097 140.669 131.322 140.55C154.012 140.432 154.58 140.409 155.749 139.532C156.408 139.038 157.349 138.094 157.841 137.432C158.722 136.249 158.737 135.768 158.852 105.293C158.968 74.7787 158.957 74.3286 158.072 72.4937C156.928 70.123 155.486 69.1879 152.469 68.8623L150.061 68.6024L149.844 64.6101C149.725 62.414 149.526 60.5164 149.401 60.3932C148.897 59.8913 144.977 58.3912 141.977 57.5524C130.751 54.4116 117.547 54.6458 106.734 58.1775L103.002 59.3964L99.269 58.1775C90.6344 55.3571 79.2196 54.5687 70.2554 56.1728ZM92.3753 60.9382C94.5223 61.3931 97.2547 62.1341 98.4475 62.5855L100.616 63.4056L100.727 95.9389L100.839 128.472L99.3943 127.867C98.5997 127.534 96.1101 126.802 93.8613 126.242C90.1863 125.325 88.8301 125.225 80.4479 125.251C71.7153 125.277 70.847 125.354 66.7856 126.457C64.4001 127.105 62.009 127.746 61.4725 127.88L60.4966 128.124V95.8384V63.5519L61.9834 62.9285C64.5601 61.8476 69.692 60.5869 73.2915 60.1503C78.1752 59.5579 87.7163 59.9518 92.3753 60.9382ZM135.522 60.5656C137.068 60.8242 139.898 61.5629 141.811 62.2072L145.29 63.3786L145.401 95.7522L145.512 128.126L144.533 127.881C143.995 127.746 141.603 127.124 139.218 126.498C135.706 125.576 133.518 125.314 127.724 125.124C119.682 124.86 114.235 125.477 108.522 127.297L105.17 128.366V95.959V63.5519L106.742 62.8928C109.016 61.939 114.663 60.5869 118.295 60.1268C122.004 59.6571 131.539 59.9 135.522 60.5656ZM122.853 71.8525C119.412 74.5697 121.045 79.79 125.337 79.79C127.239 79.79 128.442 79.0783 129.276 77.4607C131.328 73.4775 126.327 69.1104 122.853 71.8525ZM56.0539 102.951C56.1329 123.907 56.3064 132.682 56.649 133.097C57.3594 133.956 58.4208 133.828 62.4722 132.392C68.3669 130.304 72.9063 129.592 80.4479 129.574C88.2302 129.555 91.8523 130.101 98.3304 132.271L102.985 133.83L107.005 132.454C113.84 130.113 116.804 129.642 124.905 129.605C133.143 129.567 137.321 130.193 143.531 132.392C147.582 133.828 148.644 133.956 149.354 133.097C149.697 132.682 149.87 123.907 149.949 102.951L150.061 73.3909L151.646 73.2581C154.758 72.9978 154.615 71.479 154.615 104.747C154.615 129.658 154.517 134.521 153.999 135.231C153.396 136.059 152.374 136.076 103.002 136.076C53.6294 136.076 52.6071 136.059 52.0038 135.231C51.4864 134.521 51.3884 129.658 51.3884 104.747C51.3884 71.479 51.2452 72.9978 54.3572 73.2581L55.9425 73.3909L56.0539 102.951ZM116.968 87.1904C116.681 87.4777 116.447 88.2221 116.447 88.8446C116.447 90.4087 117.203 91.0212 119.136 91.0212H120.784V102.339V113.658H125.338H129.893V100.883C129.893 89.0605 129.834 88.0554 129.099 87.3885C128.45 86.7991 127.322 86.668 122.897 86.668C119.268 86.668 117.317 86.84 116.968 87.1904Z" fill="#1E5C1D"/>
<defs>
<filter id="filter0_d_271_292" x="0" y="0" width="207.535" height="207.535" filterUnits="userSpaceOnUse" color-interpolation-filters="sRGB">
<feFlood flood-opacity="0" result="BackgroundImageFix"/>
<feColorMatrix in="SourceAlpha" type="matrix" values="0 0 0 0 0 0 0 0 0 0 0 0 0 0 0 0 0 0 127 0" result="hardAlpha"/>
<feOffset dy="4"/>
<feGaussianBlur stdDeviation="9"/>
<feComposite in2="hardAlpha" operator="out"/>
<feColorMatrix type="matrix" values="0 0 0 0 0 0 0 0 0 0 0 0 0 0 0 0 0 0 0.17 0"/>
<feBlend mode="normal" in2="BackgroundImageFix" result="effect1_dropShadow_271_292"/>
<feBlend mode="normal" in="SourceGraphic" in2="effect1_dropShadow_271_292" result="shape"/>
</filter>
</defs>
</svg>
