<?xml version="1.0" standalone="no"?>
<!DOCTYPE svg PUBLIC "-//W3C//DTD SVG 20010904//EN"
 "http://www.w3.org/TR/2001/REC-SVG-20010904/DTD/svg10.dtd">
<svg version="1.0" xmlns="http://www.w3.org/2000/svg"
 width="512.000000pt" height="512.000000pt" viewBox="0 0 512.000000 512.000000"
 preserveAspectRatio="xMidYMid meet">

<g transform="translate(0.000000,512.000000) scale(0.100000,-0.100000)"
fill="#388E37" stroke="black">
<path d="M2341 5110 c-618 -60 -1150 -309 -1582 -740 -207 -207 -340 -385
-465 -624 -388 -744 -389 -1628 -3 -2366 348 -664 981 -1154 1700 -1314 205
-45 338 -59 564 -60 275 0 477 27 724 99 661 192 1225 656 1550 1275 194 371
285 750 285 1185 -1 571 -169 1075 -512 1535 -99 132 -337 376 -462 472 -375
289 -771 456 -1240 523 -131 19 -434 27 -559 15z m782 -2490 c306 -272 556
-497 556 -500 0 -3 -24 -31 -53 -63 l-52 -58 -505 450 c-277 248 -506 451
-509 451 -3 0 -232 -203 -509 -451 l-504 -450 -53 58 -52 58 26 27 c56 57
1087 977 1093 975 4 -1 257 -225 562 -497z"/>
</g>
</svg>
