<svg width="42" height="39" viewBox="0 0 42 39" fill="none" xmlns="http://www.w3.org/2000/svg">
<path fill-rule="evenodd" clip-rule="evenodd" d="M40.1502 0.761472C33.3549 4.87432 26.5365 10.8193 19.6486 18.6369C17.0558 21.5796 14.0666 25.3168 12.0049 28.1934C11.689 28.634 11.4129 28.9946 11.3913 28.9946C11.3697 28.9946 10.0919 28.2844 8.55175 27.4164C7.01167 26.5483 5.52184 25.7102 5.24108 25.554C4.96031 25.3978 3.77882 24.7333 2.61555 24.0773L0.500419 22.8844L0.241566 23.184C0.0992589 23.3488 -0.00919969 23.5252 0.000617286 23.5762C0.0104343 23.6271 1.39832 25.2629 3.0848 27.2112C4.77128 29.1594 7.75603 32.6091 9.71754 34.8771C12.9777 38.6464 13.3046 39.0005 13.5231 39C13.757 38.9994 13.785 38.9545 14.8005 36.948C19.1579 28.3384 23.6616 21.2011 28.8701 14.6502C32.6436 9.90427 36.4211 5.86608 41.4301 1.22362L42 0.695416L41.7426 0.34724C41.6011 0.155719 41.4677 -0.000545769 41.4461 1.43275e-06C41.4245 0.000470463 40.8414 0.343175 40.1502 0.761472Z" fill="#388E37"/>
</svg>
